<svg width="28" height="28" viewBox="0 0 28 28" fill="none" xmlns="http://www.w3.org/2000/svg">
<path fill-rule="evenodd" clip-rule="evenodd" d="M10.4987 18.0674C15.193 18.0674 18.9986 14.6945 18.9986 10.5337C18.9986 6.37296 15.193 3 10.4987 3C5.80431 3 1.99878 6.37296 1.99878 10.5337C1.99878 12.1214 2.5529 13.5944 3.49907 14.809V19.9731L6.96599 17.3879C8.04183 17.8242 9.23821 18.0674 10.4987 18.0674Z" fill="#8A8A8A"/>
<path fill-rule="evenodd" clip-rule="evenodd" d="M10.9986 19.0719C15.9691 19.0719 19.9985 15.0244 19.9985 10.0315C19.9985 9.80269 19.99 9.57586 19.9734 9.35132C23.4607 10.2905 25.9985 13.1629 25.9985 16.5607C25.9985 18.148 25.4446 19.6207 24.4988 20.8352V26.0001L21.0317 23.4148C19.9557 23.8512 18.7592 24.0944 17.4986 24.0944C13.7402 24.0944 10.5516 21.9324 9.42944 18.935C9.93902 19.025 10.4634 19.0719 10.9986 19.0719Z" fill="#8A8A8A"/>
</svg>
