<svg width="28" height="28" viewBox="0 0 28 28" fill="none" xmlns="http://www.w3.org/2000/svg">
<g clip-path="url(#clip0_127_1594)">
<path d="M18.0831 16.3333H17.1615L16.8348 16.0183C17.9781 14.6883 18.6665 12.9617 18.6665 11.0833C18.6665 6.895 15.2715 3.5 11.0832 3.5C6.89496 3.5 3.5 6.895 3.5 11.0833C3.5 15.2717 6.89496 18.6667 11.0832 18.6667C12.9615 18.6667 14.6882 17.9783 16.0182 16.835L16.3332 17.1617V18.0833L22.1664 23.905L23.9047 22.1667L18.0831 16.3333ZM11.0832 16.3333C8.17827 16.3333 5.8333 13.9883 5.8333 11.0833C5.8333 8.17833 8.17827 5.83333 11.0832 5.83333C13.9882 5.83333 16.3332 8.17833 16.3332 11.0833C16.3332 13.9883 13.9882 16.3333 11.0832 16.3333Z" fill="#8A8A8A"/>
</g>
<defs>
<clipPath id="clip0_127_1594">
<rect width="27.9996" height="28" fill="white"/>
</clipPath>
</defs>
</svg>
